<svg id="Layer_1" data-name="Layer 1" xmlns="http://www.w3.org/2000/svg" viewBox="0 0 20 20"><defs><style>.cls-1{fill:#1e94ac;}</style></defs><title>Community Icon selected</title><path class="cls-1" d="M8.75,3.75A2.75,2.75,0,1,0,6,6.5,2.75,2.75,0,0,0,8.75,3.75Zm-4.5,0A1.75,1.75,0,1,1,6,5.5,1.75,1.75,0,0,1,4.25,3.75Z"/><path class="cls-1" d="M2.5,7.5H6.68a3.83,3.83,0,0,0-.35,1H2.5A.5.5,0,0,0,2,9v.5c0,1.26,1.1,2.61,3.1,2.93a2.57,2.57,0,0,0-.79.85A4.13,4.13,0,0,1,1,9.5V9A1.5,1.5,0,0,1,2.5,7.5Z"/><path class="cls-1" d="M7.88,7.5a2.75,2.75,0,0,1,4.24,0,2.83,2.83,0,0,1,.53,1,3.08,3.08,0,0,1,.1.75,2.74,2.74,0,0,1-1.5,2.45,2.79,2.79,0,0,1-1.18.3H9.93a2.79,2.79,0,0,1-1.18-.3,2.74,2.74,0,0,1-1.5-2.45,3.08,3.08,0,0,1,.1-.75A2.83,2.83,0,0,1,7.88,7.5Zm.54,1a1.72,1.72,0,0,0-.17.75,1.76,1.76,0,0,0,1,1.6,1.76,1.76,0,0,0,1.42,0,1.76,1.76,0,0,0,1-1.6,1.75,1.75,0,0,0-1.49-1.73L10,7.5l-.26,0A1.73,1.73,0,0,0,8.42,8.5Z"/><path class="cls-1" d="M15.69,13.28a2.57,2.57,0,0,0-.79-.85c2-.32,3.1-1.67,3.1-2.93V9a.5.5,0,0,0-.5-.5H13.68a4.26,4.26,0,0,0-.36-1H17.5A1.5,1.5,0,0,1,19,9v.5A4.13,4.13,0,0,1,15.69,13.28Z"/><path class="cls-1" d="M14.49,13.37a1.51,1.51,0,0,0-1-.37h-7a1.53,1.53,0,0,0-1.1.47,1.5,1.5,0,0,0-.4,1V15c0,2,1.86,4,5,4s5-2,5-4v-.5A1.52,1.52,0,0,0,14.49,13.37ZM6,14.5a.5.5,0,0,1,.5-.5h7a.5.5,0,0,1,.5.5V15c0,1.44-1.43,3-4,3s-4-1.56-4-3Z"/><path class="cls-1" d="M14,1a2.75,2.75,0,1,1-2.75,2.75A2.75,2.75,0,0,1,14,1Zm0,1a1.75,1.75,0,1,0,1.75,1.75A1.75,1.75,0,0,0,14,2Z"/></svg>