<svg id="Layer_1" data-name="Layer 1" xmlns="http://www.w3.org/2000/svg" viewBox="0 0 24 24"><defs><style>.cls-1{fill:#1e94ac;}</style></defs><title>Notifications Icon selected</title><g id="icons"><g id="notification"><path class="cls-1" d="M13.7,20H10.2a1,1,0,0,0-.9,1.5A3.28,3.28,0,0,0,12,23a3,3,0,0,0,2.6-1.5A1,1,0,0,0,13.7,20Z"/><path class="cls-1" d="M21.8,16.7l-.4-.5A11.77,11.77,0,0,1,19,9V8.3a7.15,7.15,0,0,0-6.2-7.2A7,7,0,0,0,5,8V9a11.77,11.77,0,0,1-2.4,7.2l-.4.5a.83.83,0,0,0-.2.8A2.13,2.13,0,0,0,4,19H20a1.93,1.93,0,0,0,1.9-1.5A1.06,1.06,0,0,0,21.8,16.7Z"/></g></g></svg>